<svg width="512" height="512" viewBox="0 0 512 512" fill="none" xmlns="http://www.w3.org/2000/svg">
<rect width="512" height="512" rx="128" fill="url(#paint0_linear)"/>
<path d="M128 85.3333C128 61.7614 147.108 42.6667 170.667 42.6667H213.333C225.118 42.6667 234.667 52.2157 234.667 64V448C234.667 459.784 225.118 469.333 213.333 469.333H170.667C147.108 469.333 128 450.225 128 426.667V85.3333Z" fill="white"/>
<path d="M234.667 128H384C407.562 128 426.667 147.108 426.667 170.667V213.333C426.667 225.118 417.118 234.667 405.333 234.667H234.667V128Z" fill="white"/>
<path d="M234.667 298.667H320C343.562 298.667 362.667 317.775 362.667 341.333V362.667C362.667 374.451 353.118 384 341.333 384H234.667V298.667Z" fill="white"/>
<circle cx="405.333" cy="106.667" r="42.6667" fill="#CFFAFE"/>
<defs>
<linearGradient id="paint0_linear" x1="0" y1="0" x2="512" y2="512" gradientUnits="userSpaceOnUse">
<stop stop-color="#06B6D4"/>
<stop offset="0.5" stop-color="#3B82F6"/>
<stop offset="1" stop-color="#7C3AED"/>
</linearGradient>
</defs>
</svg>
